<svg id="Capa_1" data-name="Capa 1" xmlns="http://www.w3.org/2000/svg" viewBox="0 0 557.95 523.76"><defs><style>.cls-1{fill:#3d3d3d;}</style></defs><path class="cls-1" d="M568.76,287.87,564.9,289c-1.33.25-2.94.58-4.89.89s-4.24.54-6.86.58a129.37,129.37,0,0,1-18-.51,110.49,110.49,0,0,0,9.62-6.55,45.09,45.09,0,0,0,6.14-5.62,24.23,24.23,0,0,0,5-8.24c2.12-6.08,2.9-12,3.66-17.65s1.08-10.84,1.35-15.33.36-8.23.39-10.86,0-4.16,0-4.16h-1.92s0,1.44-.26,4-.57,6.23-1.13,10.61-1.33,9.47-2.38,14.81-2.37,11.08-4.45,15.82c-1.88,4.39-5.78,7.34-9.69,9.87a113.7,113.7,0,0,1-11.28,6.13c-3.43,1.67-6.35,3.07-8.42,4.16-.92.47-1.64.87-2.19,1.19-3.38-.48-6.86-1-10.49-1.58l-29.65-4.89c-8.72-2.05-18.36-6.31-28.83-9.9.77-.69,1.52-1.39,2.31-2.06,1.16-1.07,2.41-1.87,3.68-2.83a46.37,46.37,0,0,1,4.12-2.39,56,56,0,0,1,10.06-3.58c7.41-2.07,16.12-3.15,24.89-7.39,8.73-4.46,15.56-11.55,21.31-18.47a190.3,190.3,0,0,0,14.31-20.17c3.85-6.15,6.87-11.4,8.95-15.08s3.26-5.8,3.26-5.8l-3.67-3.12-3.55,5.49c-2.27,3.48-5.52,8.42-9.6,14.11a177.54,177.54,0,0,1-14.76,18.23c-5.71,6.07-12.37,11.89-19.47,14.82s-15.52,3.41-23.64,4.93c-1.23.23-2.45.49-3.67.77.05-1.38.08-2.81,0-4.34-.17-3.89-.65-8.29-1-12.61a41,41,0,0,1,1-13.08,98,98,0,0,1,8.74-23.9,39.75,39.75,0,0,1,2.31-4,34.11,34.11,0,0,1,1.94-3l1.82-2.45-1.29-1.7-2.14,2.33a31.56,31.56,0,0,0-2.3,2.85,41.36,41.36,0,0,0-2.77,3.91,99.56,99.56,0,0,0-11.36,24c-.64,2.48-1.56,4.71-1.86,7.51a29.68,29.68,0,0,0-.46,3.93c-.05,1.25-.19,2.55-.18,3.72-.08,4.84,0,9-.14,12.44a36.44,36.44,0,0,1-1,7,58,58,0,0,0-5.37,2.61c-1.7,1.07-3.41,2.06-4.84,3.18-5.57,4.17-9.39,7.7-12.23,9.71-1.84-.29-3.71-.54-5.65-.66a35.76,35.76,0,0,0-10.81.89,28.47,28.47,0,0,0-10.87,5.46c-6.45,5.16-10.76,11.8-14.66,17.85l-5.59,8.84-.63,1-.06.08h0l-.18.22-1.74,2.16c-1.2,1.44-2.27,2.89-3.35,4.34-4.33,5.78-8.25,11.51-12.25,16.55l-3,3.62-3.05,3.22L359,333.74c-1.11.89-2.3,1.71-3.43,2.58a78.9,78.9,0,0,1-15.28,8.14c-5.43,2.35-11.14,4.46-16.85,6.91-11.73,5.46-21.54,9.87-31.58,14.22l-5.64,2.35-2.14.54c-.66.12-1.18.07-1.62.12l-1.33.12v1.35c-6.19,2.59-12.18,5.11-17.89,7.64l-6.55,2.85c-2.13.91-4.22,1.82-6.28,2.91l-11.67,5.87L233.4,392a64.17,64.17,0,0,0-5.5,3.92,71.89,71.89,0,0,0-8.17,8c-2.5,2.91-4.41,5.15-6,6.92-5-8.67-9.91-17.3-14.69-26l2.06-1.77,8.7-7.29,8.8-7.53,8.77-8a150.6,150.6,0,0,0,29.36-38.33c3.63-1.15,9.79-1.9,17.48-2.08l6.15-.14c2.35,0,4.53-.37,6.91-.55s4.77-.63,7.22-1a74.3,74.3,0,0,0,7.67-1.75,50.59,50.59,0,0,0,15.43-7.7,86,86,0,0,0,7.71-6.87l.08,1.37,2.12-.31a49.51,49.51,0,0,1,5.84-.48c2.54-.09,5.59,0,9.14-.19a44.64,44.64,0,0,0,11.25-1.76c7.48-2.37,13.86-6.25,18.59-8.42a46.22,46.22,0,0,1,5.76-2.28l2.2-.62-.44-5.36-2.58.22a48,48,0,0,0-6.62,1.28c-5.38,1.4-12.09,3.9-18.47,4.63-5.27.61-10.72-.57-15.66-1.45,5.19-6.78,10-13.34,15.31-18.58A49.85,49.85,0,0,1,363,261.37a47.27,47.27,0,0,1,5.78-2.59l5.92-2.33c3.79-1.55,7.23-3.13,10.25-4.6,3-1.66,5.63-2.93,7.7-4.29l6.46-4.31-2.26-4.65-6.33,3.7c-2,1.17-4.62,2.22-7.51,3.62-3,1.23-6.33,2.52-10.07,3.8l-5.86,1.89a52.87,52.87,0,0,0-6.65,2.53,55.49,55.49,0,0,0-13.1,8.93c-7.93,7.11-14.82,16.24-21.93,24.21l-.93,0,.06,1a.86.86,0,0,1-.13.14,72.92,72.92,0,0,1-11.74,10.27,40.52,40.52,0,0,1-12.75,5.41c-2.19.51-4.44.79-6.64,1.08s-4.44.42-6.62.45-4.33.24-6.23.1l-6.14-.25c-3.73-.13-7.21-.14-10.43,0,1.23-3.36,2.39-6.72,3.52-10.07,2.68-8,5.08-15.88,7.85-23s6-13.44,10.08-18.23A33.26,33.26,0,0,1,300.42,244a153.17,153.17,0,0,1,19.93-5l21-3.91c7.1-1.38,14.25-3,21.42-5.07a100.86,100.86,0,0,0,21.29-8.72,57.73,57.73,0,0,0,5.14-3.16,47.41,47.41,0,0,0,4.9-3.6,70.88,70.88,0,0,0,7.95-7.22l1.45-.06,2.78-.12a21.55,21.55,0,0,1,2.4.06,48.92,48.92,0,0,1,5.19.76c3.57.69,7.25,1.56,11.08,2.17a36.82,36.82,0,0,0,5.94.56,35,35,0,0,0,6.74-.61c-.12-.16-.24-.33-.31-.3a7.74,7.74,0,0,0,2.31-1.51c.53-.46,1-.91,1.49-1.37.94-.91,1.83-1.83,2.71-2.76,1.74-1.85,3.44-3.73,5.12-5.62,3.36-3.77,6.65-7.6,9.94-11.44l9.81-11.53,4.9-5.74,2.48-2.82,1.25-1.37L478,165l.29-.27.1-.09,0-.1a2.69,2.69,0,0,0-.21-.52.65.65,0,0,1-.07-.34c0-.14,0,0,0-.09h1a1.34,1.34,0,0,0-.42-1,.77.77,0,0,0-.53-.22,1,1,0,0,0-.38.06,1.13,1.13,0,0,0-.27.14,2.89,2.89,0,0,0-.27.19l-.4.33-.72.65-1.37,1.3L472,167.73l-5.25,5.32-10.47,10.66c-3.49,3.54-7,7.07-10.52,10.51-1.76,1.72-3.54,3.43-5.32,5.06-.9.82-1.79,1.62-2.68,2.36-.44.38-.88.73-1.3,1a6.88,6.88,0,0,1-.59.4.79.79,0,0,1-.2.12c0,.07-.1-.11,0,.15a8.68,8.68,0,0,1,.44,1.53l-.53-1.4c-2.55.83-6.2.21-9.62-.64s-7.05-2-10.75-3.08a54.92,54.92,0,0,0-5.78-1.35l-.18,0a134.62,134.62,0,0,0,8.12-13.83c7.63-15,13.28-30.44,21.7-42.51L431,133.67c-10.07,13.85-16.15,29.76-23.59,43.39-3.71,6.81-7.68,13.19-12.37,18.18-.73.77-1.53,1.47-2.31,2.2h-.34v.34a57.22,57.22,0,0,1-5.06,4.17,38.37,38.37,0,0,1-4.21,2.93c-1.05.6-2.08,1.25-3.14,1.85.49-1.77,1-3.6,1.37-5.54a59.25,59.25,0,0,0,1.33-16.57,72.07,72.07,0,0,0-3.79-15.56c-1.55-4.62-3-8.81-4-12.49a36.18,36.18,0,0,1-1.37-8.94,15.61,15.61,0,0,1,.1-2.5c.05-.57.08-.88.08-.88l-1.87-.51s-.07.34-.17,1a18.54,18.54,0,0,0-.35,2.81,40.76,40.76,0,0,0,.69,9.93c.69,4,1.85,8.47,3,13.18s2.29,9.71,2.35,14.41a50.82,50.82,0,0,1-2.31,13.9,74.63,74.63,0,0,1-4.48,11.52c-.12.25-.24.47-.36.71-9.76,3.7-20.31,5.73-30.93,7.52L318.22,222a168.39,168.39,0,0,0-20.88,4.52c0-3.52-.17-7.7-.58-12.3-.52-6.09-1.48-12.87-2.14-19.81a39,39,0,0,1,3.46-7.37,13.53,13.53,0,0,1,7.76-6,38.05,38.05,0,0,1,6.05-1.31,65.74,65.74,0,0,0,6.87-1.07,39.65,39.65,0,0,0,13.38-5.33,36.53,36.53,0,0,0,5.43-4.19,35.66,35.66,0,0,0,4.32-4.52,38.38,38.38,0,0,0,3.2-4.3,30.89,30.89,0,0,0,2.19-3.55c1.13-2,1.77-3.18,1.77-3.18l-1.6-1.27-1.94,2.86a23.89,23.89,0,0,1-2.34,3.14,33.67,33.67,0,0,1-3.3,3.69,30.72,30.72,0,0,1-4.28,3.7,32.37,32.37,0,0,1-5.2,3.25,34.84,34.84,0,0,1-12.27,3.42,62.2,62.2,0,0,1-6.69.28,42,42,0,0,0-7,.74,20.69,20.69,0,0,0-6.86,2.72,17.52,17.52,0,0,0-3.25,2.64,37,37,0,0,1,1.27-6.92c1.73-6.29,6.45-12.37,10.66-18s8.62-10.87,11.94-15.94A54.79,54.79,0,0,0,325,124.3l.72-2.51c.13-.77.24-1.43.34-2,.17-1,.27-1.62.27-1.62l-4.44-.88s-.1.44-.31,1.26c-.09.4-.22.91-.36,1.5l-.72,2a46.23,46.23,0,0,1-6.77,11.27c-3.36,4.36-7.83,9-12.64,14.32-2.4,2.67-4.88,5.49-7.32,8.68-1.19,1.65-2.39,3.3-3.52,5.22a22,22,0,0,0-1.58,3,25.93,25.93,0,0,0-1.37,3.22,55.59,55.59,0,0,0-3,13.46c-.21,2.25-.33,4.47-.39,6.63-2.88-4.61-5.51-9.76-6.35-15.35a43.28,43.28,0,0,1-.24-6.7c.2-2.36.41-4.71.84-7.09.75-4.73,1.72-9.33,2.25-13.47a52.29,52.29,0,0,0,.57-5.7,33.47,33.47,0,0,0,.1-4.49c-.12-2.5-.18-3.94-.18-3.94l-4.49.38s-.07,1.23-.2,3.37a27.15,27.15,0,0,1-.5,3.85,45.25,45.25,0,0,1-1,5c-.87,3.66-2.26,7.92-3.59,12.84-.71,2.42-1.27,5.13-1.81,7.93a54.92,54.92,0,0,0-.62,9.12,51,51,0,0,0,4.09,17.2,136.3,136.3,0,0,0,6.08,12.43c1.81,3.4,3.25,6.09,4.13,8l1.35,2.91.39-.28c0,.42,0,.87,0,1.28a91.32,91.32,0,0,1-.51,13.64c-.12,1.58-.44,2.69-.55,3.51,0,.24-.07.38-.1.55a46.93,46.93,0,0,0-9,7.79c-6.23,6.89-10.54,15.29-13.91,23.39s-6,16.18-8.74,23.81a197.25,197.25,0,0,1-8.8,21.43c-1.82,3.16-3.79,6.21-5.65,9.33-2,3-4.32,5.84-6.45,8.78-1.11,1.37-2.28,2.68-3.46,4-.14-.21-.27-.39-.43-.6l-.92-1.15-.51-.61c-.14-.16-.47-.56-.37-.41l-1.68-2.37c-.58-.89-1.26-1.84-1.83-2.81a18.07,18.07,0,0,1-2.69-5.86c-.44-1.65.06-4,1-6.91s2.26-6,3.44-9.25,2.28-6.67,3.41-10c4.15-13.72,5.72-28.46,4.85-39.3a86.17,86.17,0,0,0-1.85-12.9c-.67-3-1.06-4.79-1.06-4.79l-1.84.63s.27,1.71.75,4.71a83.28,83.28,0,0,1,1,12.5c.2,10.41-2.1,24.17-6.79,36.79-1.29,3.12-2.46,6.22-3.83,9.27s-2.76,6-4.07,9.16a31.55,31.55,0,0,0-1.74,5.24,17.74,17.74,0,0,0-.35,6.32,27.3,27.3,0,0,0,3.38,9.54c.65,1.25,1.3,2.3,1.9,3.37l1.87,3.05.93,1.25.7,1c.18.26.31.48.47.73-1.76,1.71-3.53,3.4-5.27,5.11l-8.29,7.18-8.65,7-8.87,7.05L189,365.38c-1.27-2.73-2.48-5.48-3.75-8.22-1.67-3.56-3.28-7.58-4.9-11.47L175.66,334c-6-15.63-11.56-31.51-15.06-47-.41-1.92-.94-3.88-1.25-5.76l-.87-5.6-.43-2.78-.15-2.35a44.9,44.9,0,0,1-.06-4.79,67.17,67.17,0,0,1,4.41-19.87,171.5,171.5,0,0,1,9.17-19.94l5.27-9.95,2.66-5c.93-1.84,1.87-3.67,2.79-5.48l1.18-2.88,1-2.35,2.14-4.77.38-.82.92-.61c2.4-1.76,5.5-4.39,9.06-7,1.8-1.07,3.68-2.56,5.87-3.34a59,59,0,0,1,7.45-2.38c5.39-1.47,12-3.12,17.39-7.74a33.1,33.1,0,0,0,7-8,64.64,64.64,0,0,0,4.86-9.11,102.93,102.93,0,0,0,5.74-17.46,94.24,94.24,0,0,0,2.17-13c.17-1.59.23-2.85.25-3.71s.06-1.32.06-1.32l-1.92-.12s0,.44-.12,1.25-.2,2-.45,3.51a88.37,88.37,0,0,1-2.81,12.26,97,97,0,0,1-6.44,16.15c-2.87,5.44-6.52,11-11.15,14.19-4.66,3.42-10.22,4.37-15.76,5.4a62.74,62.74,0,0,0-8.32,1.94,29.75,29.75,0,0,0-6.3,2.86c1.7-3.76,3.35-7.5,4.89-11.24a117.66,117.66,0,0,0,6.57-19.73,44.74,44.74,0,0,0,.88-6.13,51.74,51.74,0,0,0-.12-5.83c-.08-.89-.16-1.77-.23-2.64l-.36-2.44c-.22-1.63-.53-3.14-.84-4.6-2.54-11.67-5.91-20.43-8.54-27.72-2.68-7.06-4.78-12.61-6.21-16.4-.69-1.84-1.18-3.24-1.49-4.16L188.37,76l-12.66,5.5s.16.56.48,1.64.79,2.65,1.43,4.66c1.28,3.88,3.14,9.57,5.51,16.8s5,15.8,6.62,25.2c.2,1.17.37,2.35.47,3.48l.18,1.72.06,1.63a16.23,16.23,0,0,1-.61,5.56,98.67,98.67,0,0,1-6,15.3c-2.6,5.55-5.56,11.33-8.71,17.38q-2.37,4.59-4.84,9.34-1.25,2.46-2.51,5l-1.26,2.6-1,2.18-2.41,4.21-2.74,4.66c-1.4,2.35-2.83,4.75-4.24,7.15a41.34,41.34,0,0,1-3.09-3.82,107.26,107.26,0,0,1-9.59-17.05c-3.19-6.77-6.21-14.34-9.29-22.12-.79-1.88-1.42-3.78-2.12-5.66s-1.42-3.95-2.12-5.91c-1.57-4-3.38-8.31-6.22-11.77a16.19,16.19,0,0,0-2.2-2.32,16.15,16.15,0,0,0-2.29-2,36.54,36.54,0,0,0-4.73-2.84L110,134.6l-4.4-1.26a84.85,84.85,0,0,0-13.3-1.45l-4.85-.29-.5,5.34,4.94.77a81.61,81.61,0,0,1,12.4,2.5c1.18.44,2.4.92,3.66,1.4l3.82,2a32,32,0,0,1,3.58,2.57,10.69,10.69,0,0,1,1.54,1.61,9.61,9.61,0,0,1,1.43,1.73c1.74,2.48,2.93,5.82,4.09,9.51.57,2,1.14,4,1.7,5.95s1.17,4.22,1.86,6.23c5,16,10.59,32.39,17.67,43.85a52.37,52.37,0,0,0,5.43,7.44c-2.08,3.89-4.09,8-6,12.39a96.06,96.06,0,0,0-7.48,28.47,77.24,77.24,0,0,0-.28,8.08l.1,4.1.39,3.63q.39,3.62.8,7.25c.31,2.41.79,4.65,1.18,7,1.51,8.36,3.44,16.48,5.59,24.44-.9-.88-1.8-1.79-2.72-2.72a118.36,118.36,0,0,1-10.19-11.62,52,52,0,0,1-7.15-13.05,95.19,95.19,0,0,1-4.17-16c-1-5.78-1.88-11.78-2.71-17.91s-1.8-12.32-2.69-18.43-2.1-12.43-3.72-18.68a88.12,88.12,0,0,0-6.7-18.05,76.93,76.93,0,0,0-10-14.86,112.16,112.16,0,0,0-11.25-11.45l-10.29-9.2-4.9-4.39L62.42,157,54,148.54c-2.72-2.66-5.07-5.5-7.4-8-4.59-5.1-8.66-9.46-11.79-13.36l-10-12L17,123.93,26.9,136.5c3.1,4.08,7.17,8.68,11.77,14.07,2.34,2.65,4.68,5.64,7.42,8.47l8.52,9,4.56,4.82,4.94,4.67,10.39,9.82c6.56,6.21,13,13.5,17.23,22.32a78.84,78.84,0,0,1,6.06,19.67l-3.13-2.62A64.25,64.25,0,0,0,86,220.57a31.39,31.39,0,0,0-5.66-2.41,16.89,16.89,0,0,0-7-.69,17.8,17.8,0,0,0-6.75,2.46,33.06,33.06,0,0,1-4.31,2.35,8,8,0,0,1-3.79.57,3,3,0,0,1-1.43-.24,8.58,8.58,0,0,1-1.74-1,45.63,45.63,0,0,1-7.7-7.76c-2.47-3-4.81-6.2-7-9.36-4.44-6.34-8.38-12.55-11.73-17.91l-8.07-13.07c-2-3.17-3.19-5-3.16-5L14,171.77s1,1.76,2.77,5.07,4.24,8.06,7.25,13.75,6.62,12.33,10.79,19.28c2.08,3.48,4.32,7,6.81,10.54a55.14,55.14,0,0,0,8.8,10.19,16.89,16.89,0,0,0,3.19,2.2,11.29,11.29,0,0,0,4,1.25,16.09,16.09,0,0,0,7.24-.44,37,37,0,0,0,5.86-2.48,8.19,8.19,0,0,1,3.48-1c1.85-.09,4.47,1.11,6.75,2.61a56.66,56.66,0,0,1,6.57,5.61c4.17,4,8,8,11.24,10.37a23,23,0,0,0,2,1.51c.37,3,.74,6,1.11,9,.69,6.14,1.43,12.47,2.44,18.9a116,116,0,0,0,4.71,19.73c.76,2.22,1.68,4.37,2.65,6.49a110.53,110.53,0,0,1-24-5.25,129,129,0,0,1-27.39-12.91,80.72,80.72,0,0,1-8.25-6.1l-2.91-2.67-1.29,1.69,2.84,3.06a84.6,84.6,0,0,0,8.09,7.08,136.88,136.88,0,0,0,27.28,15.88c10.41,4.5,21.31,7.75,29.89,8.55.35,0,.66.05,1,.08.48.74.95,1.51,1.46,2.22a138.43,138.43,0,0,0,11.52,13.92c3.81,4.06,8,8.36,11.66,11.79a176.48,176.48,0,0,1,14.16,14.78l.8,2.31c1.51,4.14,2.92,8.2,4.68,12.48l1.63,4.14c-.39,0-.79-.11-1.18-.14a110.9,110.9,0,0,0-19.76.55l-9.56,1.06-4.35.33c-1.47.09-3,0-4.5,0-12.11,0-24.68-2.11-36.41-4.18-5.46-1-10.76-2.05-15.82-3.08-.38-.94-.81-1.93-1.32-3a67.59,67.59,0,0,0-10.31-15.28A81.74,81.74,0,0,0,47,340.23a59.22,59.22,0,0,0-6.33-4.07l-.93,2a59.33,59.33,0,0,1,5.53,5A83.31,83.31,0,0,1,55.72,356,68.3,68.3,0,0,1,62,368.12l-7.28-1.48c-9.54-1.93-17.6-3.33-23.34-4.06-2.85-.41-5.15-.6-6.71-.72l-2.4-.21-.75,12.77,2.2.3c1.42.2,3.52.46,6.22,1,5.4,1,13.15,2.72,22.51,5.13S72.79,386.2,84.73,389l2.39.54-2.91,2.09-6.85,5.21-7.31,5.56-3.75,2.85-.94.71-.73.51a7.33,7.33,0,0,1-1.54.95,23.74,23.74,0,0,1-7.48,2.33,55.71,55.71,0,0,1-8.13.74,132.16,132.16,0,0,1-14.94-.66c-4.41-.43-8.09-.89-10.69-1.23l-4.08-.54-.7,5.31,4,1c2.57.62,6.24,1.51,10.7,2.45a134.41,134.41,0,0,0,15.5,2.42,63.15,63.15,0,0,0,9.08.18,30.39,30.39,0,0,0,9.88-2,13.35,13.35,0,0,0,2.54-1.21l1.26-.71,1-.61L75,412.51l7.65-4.68,7.14-4.37,6.38-3.68c3.95-2.38,7.28-3.88,9.59-5.08l2-1a151.12,151.12,0,0,0,15.29,1.7c1.71.06,3.38.2,5.12.2l5.23-.12,9.45-.56a95.83,95.83,0,0,1,17.27.38,32.12,32.12,0,0,1,13.5,4.61l0,0c6.89,14.22,13.94,27.62,20.35,40.39a355.89,355.89,0,0,1,17.41,40.22c4.95,13.92,9.22,26.89,12.89,39,7.29,24.19,11.91,44.62,13.43,57.86.5,3.38.59,6.11.83,8.59.09,2.35.08,4.21.14,5.78-.21,2.66-.24,4.06-.24,4.06l37.78,3.93s.09-3,.1-8.69c-.16-2.57-.31-5.85-.65-9.5s-.86-7.69-1.67-11.91c-2.85-17.41-9.09-39.6-18-65-4.43-12.65-9.61-26.21-15.25-40-4.65-11.38-10.15-23-16.1-34.16,2.38-2.62,5.34-6.29,8.38-10a50.88,50.88,0,0,1,5.68-5.89c1.08-.86,2-1.6,3.26-2.48l4.82-2.55L257.45,404c1.84-1,3.85-2,5.92-2.92l6.33-2.95c8.54-4.06,18.13-8.28,28.19-12.79,6.52-3,13.51-6.35,20.37-9.67l.32,0a67.34,67.34,0,0,1,6.74.91c1,.18,3.09-.32,4.81-.59a17.41,17.41,0,0,1,10.08-7.94,13.61,13.61,0,0,1,2.38-.49l-4.49-1.23c2.58-1.12,5.23-2.26,7.92-3.5a95.2,95.2,0,0,0,17.83-10.16c1.43-1.14,2.9-2.22,4.32-3.43s2.81-2.54,4.18-3.87l3.84-4.25,3.48-4.38c4.45-5.88,8.33-11.84,12.24-17.29,1-1.36,1.94-2.73,2.93-4l1.47-1.9.63-.8a8.82,8.82,0,0,0,.68-1l.79-1.26c1.83-3,3.68-6.09,5.51-9.14,3.51-5.81,7-11,10.82-14.15a15.38,15.38,0,0,1,5.89-3.17,24.15,24.15,0,0,1,7.27-.75,46.7,46.7,0,0,1,6.81.8l.35.83.88-.62c2.68.54,5.38,1.24,8.08,2,5.45,1.61,10.9,3.56,16.37,5.44a137.55,137.55,0,0,0,16.78,4.9l7.93,1.1v.89c2.94-.35,6.93,1.76,10.57,4.43s7.33,6,11.36,9.17a70.94,70.94,0,0,0,6.22,4.16l6.18,3.85c2.06,1.3,4.31,2.35,6.43,3.52,2.22,1,4.52,1.8,6.47,3.78,0-.4,0-.8-.08-.86a6.05,6.05,0,0,0,1.5.48l1.24.24,2.43.37,2.44.28.64.05h.58l.18,0a1.26,1.26,0,0,0,.45-.17,1.36,1.36,0,0,0,.25-.22,1.48,1.48,0,0,0,.31-.83,1.45,1.45,0,0,0-.39-1.08l-.06-.05-.13-.1a.83.83,0,0,0-.19-.1l-.21-.08-.33-.1-.62-.15-.05.21-.1,0-2.28-.64-2.27-.73-1.1-.4-.51-.22-.22-.1-.09-.05h0l-.18.41-.07-.47c-2-1.12-4.1-2.11-6.09-3.31-1.94-1.39-3.9-2.59-5.8-4.11l-5.7-4.52a70.47,70.47,0,0,1-5.47-4.61c-2-1.94-4-4.08-6.08-6.23l3.23.45c18.76,2.53,34.71,3.73,46.17,2.77,2.85-.12,5.45-.59,7.68-.86,2.26-.42,4.2-.86,5.76-1.21l4.83-1.57Z" transform="translate(-14.03 -76.03)"/></svg>