<?xml version="1.0" encoding="utf-8"?>
<!-- Generator: Adobe Illustrator 25.2.1, SVG Export Plug-In . SVG Version: 6.00 Build 0)  -->
<svg version="1.1" id="Capa_1" xmlns="http://www.w3.org/2000/svg" xmlns:xlink="http://www.w3.org/1999/xlink" x="0px" y="0px"
	 viewBox="0 0 150 150" style="enable-background:new 0 0 150 150;" xml:space="preserve">
<style type="text/css">
	.st0{fill:none;stroke:#1D1D1B;stroke-width:2;stroke-miterlimit:10;}
	.st1{fill:url(#SVGID_1_);}
	.st2{fill:#1D1D1B;}
	.st3{fill:url(#SVGID_2_);}
	.st4{fill:none;stroke:#1D1D1B;stroke-miterlimit:10;}
</style>
<ellipse class="st0" cx="70.75" cy="36.86" rx="45.78" ry="34.42"/>
<g>
	<linearGradient id="SVGID_1_" gradientUnits="userSpaceOnUse" x1="78.5429" y1="28.1796" x2="98.8351" y2="28.1796">
		<stop  offset="0" style="stop-color:#FFFFFF"/>
		<stop  offset="1" style="stop-color:#1D1D1B"/>
	</linearGradient>
	<circle class="st1" cx="88.69" cy="28.18" r="10.15"/>
	<path class="st2" d="M98.84,28.18c0.02,2.66-1.05,5.31-2.91,7.24c-1.84,1.95-4.49,3.17-7.24,3.24c-2.74,0.09-5.55-0.95-7.58-2.9
		c-2.04-1.94-3.24-4.75-3.24-7.58c0-2.83,1.19-5.65,3.23-7.58c2.03-1.95,4.84-2.99,7.58-2.9c2.75,0.07,5.4,1.29,7.24,3.24
		C97.79,22.87,98.85,25.52,98.84,28.18z M98.84,28.18c0-2.66-1.12-5.29-3.04-7.11c-1.91-1.82-4.54-2.79-7.11-2.7
		c-2.58,0.07-5.05,1.22-6.76,3.04c-1.73,1.81-2.73,4.28-2.71,6.76c-0.02,2.49,0.97,4.95,2.71,6.77c1.72,1.83,4.19,2.97,6.77,3.05
		c2.57,0.09,5.2-0.88,7.11-2.7C97.72,33.47,98.83,30.84,98.84,28.18z"/>
</g>
<g>
	<linearGradient id="SVGID_2_" gradientUnits="userSpaceOnUse" x1="48.0235" y1="25.5822" x2="63.1209" y2="25.5822">
		<stop  offset="0" style="stop-color:#FFFFFF"/>
		<stop  offset="1" style="stop-color:#1D1D1B"/>
	</linearGradient>
	<circle class="st3" cx="55.57" cy="25.58" r="7.55"/>
	<path class="st2" d="M63.12,25.58c0.01,1.98-0.78,3.95-2.16,5.39c-1.37,1.45-3.34,2.36-5.39,2.41c-2.04,0.07-4.13-0.71-5.64-2.16
		c-1.52-1.44-2.41-3.53-2.41-5.64c0-2.11,0.89-4.2,2.41-5.64c1.51-1.45,3.6-2.23,5.64-2.16c2.05,0.05,4.02,0.96,5.39,2.41
		C62.34,21.63,63.14,23.6,63.12,25.58z M63.12,25.58c0-1.98-0.83-3.94-2.26-5.29c-1.42-1.36-3.38-2.08-5.29-2.01
		c-1.92,0.05-3.75,0.91-5.03,2.26c-1.29,1.35-2.03,3.18-2.02,5.03c-0.01,1.85,0.72,3.69,2.01,5.03c1.28,1.36,3.12,2.21,5.03,2.27
		c1.91,0.07,3.87-0.65,5.29-2.01C62.29,29.52,63.12,27.56,63.12,25.58z"/>
</g>
<path class="st4" d="M43.8,51.8c16.23,5.19,32.47,0,45.45-1.95"/>
<path class="st4" d="M76.27,45.96c0.65,3.03,1.3,6.06,1.95,9.09"/>
<path class="st4" d="M65.56,47.4c0.65,3.03,1.3,6.06,1.95,9.09"/>
<path class="st4" d="M54.6,49.5c0.65,3.03,1.3,6.06,1.95,9.09"/>
</svg>
