<?xml version="1.0" encoding="utf-8"?>
<!-- Generator: Adobe Illustrator 25.2.1, SVG Export Plug-In . SVG Version: 6.00 Build 0)  -->
<svg version="1.1" id="Capa_1" xmlns="http://www.w3.org/2000/svg" xmlns:xlink="http://www.w3.org/1999/xlink" x="0px" y="0px"
	 viewBox="0 0 150 150" style="enable-background:new 0 0 150 150;" xml:space="preserve">
<style type="text/css">
	.st0{fill:none;stroke:#1D1D1B;stroke-width:1.2031;stroke-miterlimit:10;}
	.st1{fill:none;stroke:#1D1D1B;stroke-miterlimit:10;}
</style>
<path class="st0" d="M40.92,2.11c4.87-2.26,7.86,4.35,19.23,7.71c9.1,2.69,16.85,1.31,19.23,0.86c13.81-2.62,17.59-11.18,23.5-8.14
	c4.94,2.54,6.53,10.68,8.55,21c2.07,10.62,1.84,19.63,1.42,25.28c-1.12,15.18-2.17,29.42-11.39,40.28
	c-10.43,12.29-24.62,12.39-29.55,12.43c-3.93,0.03-14.68-0.07-25.28-8.57c-2.98-2.39-9.25-7.55-13.17-17.14
	c-3.37-8.24-3.2-16.06-2.85-31.71c0.28-12.43,1.66-19.53,2.14-21.86C34.93,11.6,36.46,4.18,40.92,2.11z"/>
<path class="st1" d="M23.31,69.7"/>
<path class="st1" d="M40.06,70.35c-0.57-0.08-4.1-0.55-7.14,1.95c-2.67,2.19-3.15,5.16-3.25,5.84"/>
<path class="st1" d="M37.28,62.14c-0.57-0.08-4.1-0.55-7.14,1.95c-2.67,2.19-3.15,5.16-3.25,5.84"/>
</svg>
