<?xml version="1.0" encoding="utf-8"?>
<!-- Generator: Adobe Illustrator 25.2.1, SVG Export Plug-In . SVG Version: 6.00 Build 0)  -->
<svg version="1.1" id="Capa_1" xmlns="http://www.w3.org/2000/svg" xmlns:xlink="http://www.w3.org/1999/xlink" x="0px" y="0px"
	 viewBox="0 0 600 600" style="enable-background:new 0 0 600 600;" xml:space="preserve">
<style type="text/css">
	.st0{fill:none;stroke:#1D1D1B;stroke-width:4.4504;stroke-miterlimit:10;}
	.st1{fill:url(#SVGID_1_);}
	.st2{fill:#1D1D1B;}
	.st3{fill:url(#SVGID_2_);}
	.st4{fill:none;stroke:#1D1D1B;stroke-width:2.2252;stroke-miterlimit:10;}
	.st5{fill:none;stroke:#1D1D1B;stroke-width:2.6772;stroke-miterlimit:10;}
</style>
<ellipse class="st0" cx="288.99" cy="127.14" rx="99.84" ry="78.14"/>
<g>
	<linearGradient id="SVGID_1_" gradientUnits="userSpaceOnUse" x1="305.9888" y1="107.4197" x2="350.2437" y2="107.4197">
		<stop  offset="0" style="stop-color:#FFFFFF"/>
		<stop  offset="1" style="stop-color:#1D1D1B"/>
	</linearGradient>
	<ellipse class="st1" cx="328.12" cy="107.42" rx="22.13" ry="23.04"/>
	<path class="st2" d="M350.24,107.42c0.03,5.91-2.18,11.83-6.18,16.26c-3.95,4.46-9.8,7.35-15.95,7.52c-3.06,0.1-6.16-0.44-9.04-1.6
		c-2.87-1.18-5.51-2.94-7.69-5.18c-2.17-2.24-3.93-4.9-5.1-7.81c-1.16-2.91-1.76-6.05-1.79-9.19c0.02-3.14,0.63-6.27,1.79-9.19
		c1.16-2.92,2.93-5.57,5.1-7.81c2.18-2.24,4.83-4,7.69-5.18c2.88-1.17,5.98-1.7,9.04-1.6c6.15,0.17,12,3.06,15.95,7.53
		C348.07,95.59,350.27,101.51,350.24,107.42z M350.24,107.42c-0.03-2.96-0.59-5.9-1.69-8.64c-1.1-2.74-2.76-5.23-4.8-7.33
		c-2.05-2.09-4.53-3.74-7.21-4.84c-2.69-1.08-5.58-1.57-8.44-1.47c-5.73,0.18-11.16,2.87-14.86,7.05c-3.74,4.15-5.8,9.68-5.78,15.23
		c-0.03,5.55,2.03,11.09,5.77,15.24c3.69,4.18,9.13,6.88,14.86,7.05c2.85,0.1,5.75-0.39,8.44-1.48c2.68-1.1,5.16-2.74,7.21-4.84
		c2.04-2.1,3.7-4.59,4.8-7.33C349.65,113.32,350.22,110.38,350.24,107.42z"/>
</g>
<g>
	<linearGradient id="SVGID_2_" gradientUnits="userSpaceOnUse" x1="239.4294" y1="101.5224" x2="272.355" y2="101.5224">
		<stop  offset="0" style="stop-color:#FFFFFF"/>
		<stop  offset="1" style="stop-color:#1D1D1B"/>
	</linearGradient>
	<ellipse class="st3" cx="255.89" cy="101.52" rx="16.46" ry="17.14"/>
	<path class="st2" d="M272.36,101.52c0.02,4.4-1.62,8.8-4.6,12.1c-1.49,1.65-3.28,3.04-5.31,4.01c-2.03,0.97-4.28,1.51-6.55,1.58
		c-4.56,0.17-9.2-1.71-12.45-5.05c-1.62-1.67-2.93-3.64-3.8-5.81c-0.86-2.17-1.31-4.5-1.33-6.84c0.02-2.33,0.47-4.67,1.33-6.84
		c0.86-2.17,2.18-4.15,3.8-5.81c3.24-3.34,7.89-5.21,12.45-5.05c2.28,0.07,4.52,0.62,6.55,1.59c2.03,0.97,3.83,2.37,5.31,4.01
		C270.74,92.72,272.38,97.12,272.36,101.52z M272.36,101.52c-0.02-2.2-0.44-4.39-1.25-6.43c-0.82-2.04-2.05-3.89-3.57-5.45
		c-3.05-3.12-7.39-4.86-11.64-4.7c-2.12,0.07-4.21,0.58-6.1,1.49c-1.89,0.91-3.56,2.22-4.95,3.76c-2.78,3.09-4.32,7.2-4.3,11.33
		c-0.02,4.13,1.51,8.25,4.29,11.34c1.38,1.54,3.06,2.85,4.95,3.76c1.89,0.91,3.98,1.42,6.11,1.49c4.25,0.16,8.59-1.57,11.64-4.7
		c1.52-1.56,2.75-3.42,3.57-5.45C271.91,105.92,272.33,103.72,272.36,101.52z"/>
</g>
<path class="st4" d="M230.22,161.05c35.4,11.79,70.81,0,99.13-4.42"/>
<path class="st4" d="M301.03,147.78c1.42,6.88,2.83,13.76,4.25,20.64"/>
<path class="st4" d="M277.67,151.06c1.42,6.88,2.83,13.76,4.25,20.64"/>
<path class="st4" d="M253.77,155.82c1.42,6.88,2.83,13.76,4.25,20.64"/>
<path class="st0" d="M367.48,198.82c3.39-7.49,37.86-2.96,65.14,14.74c38.73,25.12,57.92,73.46,50.98,79.61
	c-4.07,3.61-24.43-12.83-65.14-45.7C382.82,218.69,365.04,204.19,367.48,198.82z"/>
<path class="st0" d="M203.73,212.23c-4.74-6.65-37.68,4.83-61.1,27.75c-33.25,32.53-42.96,83.85-35.01,88.47
	c4.67,2.71,21.54-17.56,55.28-58.11C192.43,234.85,207.13,217,203.73,212.23z"/>
<path class="st0" d="M341.77,401.78c7.26-3.54,26.74,19.53,37.99,42.15c22.03,44.29,19.24,100.3,8.58,102.95
	c-11.27,2.8-33.32-53.59-42.98-93.74C342.1,439.59,333.92,405.6,341.77,401.78z"/>
<path class="st0" d="M248.32,412.45c-7.44-3.13-25.69,20.99-35.77,44.21c-19.72,45.45-14.06,101.23-3.28,103.28
	c11.4,2.17,30.52-55.37,38.1-96C249.94,450.23,256.36,415.83,248.32,412.45z"/>
<path class="st5" d="M218.74,193.36c10.63-5.13,17.15,9.88,41.93,17.51c19.84,6.11,36.74,2.97,41.93,1.95
	c30.13-5.96,38.36-25.38,51.25-18.49c10.78,5.76,14.24,24.24,18.64,47.68c4.52,24.12,4.02,44.58,3.11,57.4
	c-2.45,34.47-4.74,66.79-24.85,91.46c-22.74,27.9-53.7,28.13-64.45,28.22c-8.57,0.07-32.01-0.15-55.14-19.46
	c-6.51-5.43-20.16-17.13-28.73-38.92c-7.36-18.7-6.98-36.47-6.21-72c0.61-28.23,3.61-44.34,4.66-49.62
	C205.67,214.89,209.01,198.06,218.74,193.36z"/>
<path class="st4" d="M218.58,317.33"/>
<path class="st4" d="M180.34,320.27"/>
<path class="st4" d="M218.58,343.86"/>
<path class="st4" d="M180.34,346.81"/>
<path class="st4" d="M348.32,258.35"/>
<path class="st4" d="M216.86,348.29c-1.24-0.19-8.93-1.24-15.58,4.42c-5.83,4.97-6.88,11.72-7.08,13.27"/>
<path class="st4" d="M210.79,329.64c-1.24-0.19-8.93-1.24-15.58,4.42c-5.83,4.97-6.88,11.72-7.08,13.27"/>
<path class="st4" d="M407.74,223.17c-1.24-0.19-8.93-1.24-15.58,4.42c-5.83,4.97-6.88,11.72-7.08,13.27"/>
<path class="st4" d="M396.41,435.14c-1.24-0.19-8.93-1.24-15.58,4.42c-5.83,4.97-6.88,11.72-7.08,13.27"/>
<path class="st4" d="M400.16,445.46c-1.24-0.19-8.93-1.24-15.58,4.42c-5.83,4.97-6.88,11.72-7.08,13.27"/>
</svg>
